Coordinates
version=1
nRows=24
nColumns=24
inDegrees=yes

Units are S.I. units (second, meters, Newtons, ...)
If the header above contains a line with 'inDegrees', this indicates whether rotational values are in degrees (yes) or radians (no).

endheader
time	pelvis_tilt	pelvis_list	pelvis_rotation	pelvis_tx	pelvis_ty	pelvis_tz	hip_flexion_r	hip_adduction_r	hip_rotation_r	knee_angle_r	ankle_angle_r	subtalar_angle_r	mtp_angle_r	hip_flexion_l	hip_adduction_l	hip_rotation_l	knee_angle_l	ankle_angle_l	subtalar_angle_l	mtp_angle_l	lumbar_extension	lumbar_bending	lumbar_rotation
      0.40000000	      4.81741308	     -1.95865106	     -0.98883613	      0.60146911	      1.04506422	     -0.02148835	     20.16323127	     -2.72442058	     -6.48786442	    -55.18730856	      2.73637463	     -0.00000308	      0.00000000	     -5.79549243	      1.19306385	     -1.07311647	     -7.33535694	      5.39710797	     -0.00000022	      0.00000000	    -16.87973510	     -0.84014708	     -4.71129617
      0.41700000	      4.80741137	     -1.84475516	     -0.84515705	      0.59876428	      1.04418473	     -0.02283874	     20.63387013	     -2.91874397	     -6.96784260	    -50.31535853	      2.74723130	     -0.00000351	      0.00000000	     -7.28440892	      1.39878736	     -0.90150897	     -6.33404953	      5.62863786	     -0.00000020	      0.00000000	    -17.19702494	     -0.79498163	     -5.06449014
      0.43300000	      4.71663092	     -1.50677754	     -0.90196764	      0.59649831	      1.04260688	     -0.02298060	     20.96628697	     -3.27900809	     -7.53118649	    -44.98985076	      2.64343298	     -0.00000424	      0.00000000	     -8.72478157	      1.81153179	     -0.93157204	     -5.31678080	      5.88912383	     -0.00000013	      0.00000000	    -17.21738661	     -1.12044114	     -5.07768447
      0.45000000	      4.84092526	     -1.05073615	     -0.78948413	      0.59435842	      1.04088889	     -0.02320878	     20.78903614	     -3.76003715	     -8.36065591	    -39.20134060	      2.37092498	     -0.00000494	      0.00000000	    -10.30761725	      2.31648634	     -0.75714162	     -4.47841451	      6.24166928	     -0.00000010	      0.00000000	    -17.45156123	     -1.49246025	     -5.21395049
      0.46700000	      4.70529606	     -0.34051615	     -0.74027956	      0.59185520	      1.03829290	     -0.02326496	     20.77981540	     -4.35922038	     -9.07303915	    -33.15762520	      1.94532109	     -0.00000501	      0.00000000	    -11.49059775	      3.07947259	     -0.57276644	     -3.84790562	      6.64969224	     -0.00000010	      0.00000000	    -17.40170009	     -2.19943947	     -5.36730103
      0.48300000	      4.63816583	     -0.03669639	     -0.30117205	      0.59054707	      1.03586969	     -0.02297409	     20.17300853	     -4.44870735	    -10.11535303	    -26.49001002	      1.39318234	     -0.00000466	      0.00000000	    -12.96257351	      3.26192231	     -0.05630793	     -2.93980770	      6.98786910	     -0.00000006	      0.00000000	    -17.37729391	     -2.39164172	     -5.69442287
      0.50000000	      4.49890941	      0.41587462	     -0.28753575	      0.58954512	      1.03282511	     -0.02160048	     19.64774636	     -4.36968791	    -10.21035257	    -19.89628400	      0.91078464	     -0.00000393	      0.00000000	    -14.38123778	      3.64399711	      0.07723391	     -2.07650312	      7.32614320	      0.00000011	      0.00000000	    -17.22195390	     -2.90907153	     -5.48986563
      0.51700000	      4.35582053	      0.98243706	     -0.19715289	      0.58825179	      1.02927620	     -0.02081970	     19.16114122	     -4.42360282	     -9.66485137	    -13.68136495	      0.62807694	     -0.00000288	      0.00000000	    -15.66585779	      4.14762524	      0.34698071	     -1.46152018	      7.75051873	      0.00000009	      0.00000000	    -17.10730661	     -3.38665387	     -5.64737254
      0.53300000	      4.18628959	      1.54905425	      0.12085958	      0.58722041	      1.02535838	     -0.02031367	     18.68212110	     -4.61981942	     -8.78152621	     -8.10851422	      0.64158550	     -0.00000188	      0.00000000	    -16.80471433	      4.56975832	      0.90356019	     -1.13023352	      8.31867189	      0.00000013	      0.00000000	    -16.93857858	     -3.78986915	     -5.78787197
      0.55000000	      4.10296654	      2.13763107	      0.02405411	      0.58676099	      1.02137934	     -0.01941763	     18.23801453	     -4.84493813	     -7.24514430	     -3.47706281	      0.88523297	     -0.00000106	      0.00000000	    -18.10694678	      5.11972242	      1.08160494	     -0.73637822	      8.77389725	      0.00000040	      0.00000000	    -16.81460888	     -4.19884623	     -5.83406762
      0.56700000	      4.02549820	      2.58693220	      0.01831006	      0.58588560	      1.01745382	     -0.01869307	     18.16440806	     -5.09663150	     -5.81147959	     -0.50872194	      1.39074466	     -0.00000067	      0.00000000	    -19.18778480	      5.48798596	      1.41278571	     -0.77348927	      9.40100420	      0.00000046	      0.00000000	    -16.73331046	     -4.44834199	     -5.67992707
      0.58300000	      3.87652211	      2.89967078	      0.67741358	      0.58428064	      1.01397722	     -0.01850494	     18.31682440	     -5.45780422	     -5.43463155	      0.99247428	      1.70933037	     -0.00000042	      0.00000000	    -19.74324728	      5.47262099	      2.31717446	     -1.63812655	     10.27956803	      0.00000061	      0.00000000	    -16.83791538	     -4.29302725	     -6.06933272
      0.60000000	      3.86810018	      2.91926434	      0.72247577	      0.58493964	      1.01125686	     -0.01663028	     18.56859884	     -5.29471619	     -4.90123351	      0.87268729	      1.92047506	     -0.00000048	      0.00000000	    -20.67645081	      5.26610523	      2.55901747	     -2.25752800	     10.82940276	      0.00000086	      0.00000000	    -16.70572859	     -4.06887700	     -5.93396842
      0.61700000	      3.77337871	      2.67195858	      1.00323250	      0.58553698	      1.00892470	     -0.01425058	     19.21856501	     -4.90778682	     -4.95799953	     -0.84110332	      1.66191835	     -0.00000092	      0.00000000	    -21.17700917	      4.66429510	      2.90114410	     -3.50507673	     11.54983425	      0.00000123	      0.00000000	    -16.61057970	     -3.53729935	     -5.96919565
      0.63300000	      3.73595986	      2.63234767	      1.53546540	      0.58648845	      1.00738023	     -0.01184802	     19.92889519	     -4.83077827	     -5.31151034	     -3.58306007	      1.01531813	     -0.00000151	      0.00000000	    -21.55239449	      4.16127752	      3.57880324	     -5.08532977	     12.03659666	      0.00000155	      0.00000000	    -16.58701603	     -3.18864307	     -6.26221921
      0.65000000	      3.61102879	      2.48167522	      2.02265754	      0.58797680	      1.00611505	     -0.00884813	     20.73920361	     -4.63910298	     -5.76595528	     -6.78401271	      0.00826946	     -0.00000216	      0.00000000	    -21.72571064	      3.54958581	      4.23325429	     -6.87806066	     12.34978494	      0.00000199	      0.00000000	    -16.37634728	     -2.79259287	     -6.62585614
      0.66700000	      3.46731299	      2.41725544	      2.40950885	      0.58993813	      1.00553052	     -0.00632451	     21.44962784	     -4.58418556	     -6.06103053	     -9.97867763	     -1.09057475	     -0.00000268	      0.00000000	    -21.66603511	      3.14229416	      4.85467137	     -9.09424421	     12.35009217	      0.00000248	      0.00000000	    -16.07946645	     -2.30609490	     -6.81480312
      0.68300000	      3.54349063	      2.37464743	      2.53573777	      0.59161580	      1.00570519	     -0.00350941	     22.06741464	     -4.50047777	     -6.01368029	    -13.53822025	     -1.69656234	     -0.00000300	      0.00000000	    -21.46727160	      2.88855798	      5.24598590	    -11.97663313	     12.06273612	      0.00000297	      0.00000000	    -15.98346620	     -1.83219226	     -6.70079893
      0.70000000	      3.82051875	      2.09922094	      2.83591124	      0.59500261	      1.00698559	     -0.00110519	     22.11183484	     -4.25497451	     -6.10412581	    -16.80580359	     -1.73297012	     -0.00000338	      0.00000000	    -21.20420792	      2.36415294	      5.62161228	    -15.43707124	     11.27932942	      0.00000361	      0.00000000	    -16.11066131	     -1.13438514	     -6.79864220
      0.71700000	      4.10151355	      1.83331817	      3.05467150	      0.59805327	      1.00877575	      0.00131999	     21.67005587	     -3.97690193	     -6.16207302	    -19.15270944	     -1.61724469	     -0.00000357	      0.00000000	    -20.33311836	      1.92716830	      5.69836005	    -19.88128090	     10.01895041	      0.00000454	      0.00000000	    -16.11754830	     -0.32307804	     -6.91822692
      0.73300000	      4.20289517	      1.70432542	      3.21505014	      0.60028679	      1.01032207	      0.00438508	     21.34009087	     -3.79173971	     -6.22080385	    -21.30551046	     -1.15153742	     -0.00000351	      0.00000000	    -18.32187917	      1.66141999	      5.37535559	    -25.84635694	      8.26624039	      0.00000567	      0.00000000	    -16.00417902	      0.11749118	     -6.77443984
      0.75000000	      4.29902447	      1.41452286	      3.29267778	      0.60293341	      1.01226213	      0.00750186	     20.53823873	     -3.38465032	     -6.42683220	    -22.61986887	     -0.47697220	     -0.00000303	      0.00000000	    -15.89824746	      1.14719575	      4.43312933	    -32.14924789	      5.48975595	      0.00000677	      0.00000000	    -15.85211807	      0.69058131	     -6.97204679
      0.76700000	      4.22346959	      1.07136616	      3.39590283	      0.60486035	      1.01402186	      0.01047098	     19.76655304	     -2.89645401	     -6.63978127	    -23.60166005	      0.51694087	     -0.00000274	      0.00000000	    -12.72118918	      0.36247517	      2.97242579	    -38.88940743	      1.86808458	      0.00000774	      0.00000000	    -15.60803885	      1.31659004	     -6.64829640
      0.78300000	      4.15936391	      0.50212924	      3.47824116	      0.60542631	      1.01579051	      0.01397118	     18.74073487	     -2.07888296	     -6.94216262	    -23.90412484	      1.43682988	     -0.00000242	      0.00000000	     -9.29378551	     -0.93476995	      1.25236198	    -45.38882448	     -2.03430219	      0.00000761	      0.00000000	    -15.45327698	      2.04517931	     -6.25404856
